<?xml version="1.0" standalone="no"?>
<!DOCTYPE svg PUBLIC "-//W3C//DTD SVG 20010904//EN"
 "http://www.w3.org/TR/2001/REC-SVG-20010904/DTD/svg10.dtd">
<svg version="1.0" xmlns="http://www.w3.org/2000/svg"
 width="700.000000pt" height="700.000000pt" viewBox="0 0 700.000000 700.000000"
 preserveAspectRatio="xMidYMid meet">
<metadata>
Created by potrace 1.11, written by Peter Selinger 2001-2013
</metadata>
<g transform="translate(0.000000,700.000000) scale(0.100000,-0.100000)"
fill="#000000" stroke="none">
<path d="M3278 6995 c-2 -1 -39 -5 -83 -9 -121 -9 -302 -35 -390 -56 -22 -5
-83 -19 -135 -31 -146 -33 -404 -117 -494 -160 -22 -11 -43 -19 -48 -19 -13 0
-296 -142 -378 -190 -819 -477 -1418 -1269 -1643 -2175 -78 -311 -102 -517
-101 -865 0 -200 5 -301 20 -407 11 -85 13 -101 19 -148 4 -27 10 -66 15 -85
5 -19 12 -48 14 -65 57 -320 242 -790 427 -1089 30 -47 59 -94 64 -104 44 -77
238 -331 328 -430 357 -393 758 -680 1246 -892 104 -45 426 -150 501 -163 14
-3 54 -12 90 -21 71 -17 268 -52 340 -60 252 -29 632 -29 858 0 101 12 300 49
387 71 55 14 107 26 115 28 8 2 67 20 130 40 538 173 1001 456 1401 855 149
148 243 255 340 385 311 414 527 898 628 1402 16 81 32 169 35 196 11 84 18
141 22 167 9 49 11 526 4 605 -16 169 -22 220 -25 225 -2 3 -6 30 -10 60 -7
55 -58 298 -75 355 -138 467 -305 809 -568 1165 -47 63 -88 117 -91 120 -3 3
-38 43 -78 90 -125 148 -367 377 -508 481 -33 24 -62 46 -65 49 -12 13 -144
102 -243 164 -112 70 -356 195 -467 241 -36 14 -74 30 -85 34 -63 26 -88 36
-170 62 -167 55 -406 113 -550 135 -27 4 -52 8 -55 9 -3 1 -41 5 -85 10 -44 4
-89 10 -100 12 -24 4 -532 12 -537 8z"/>
</g>
</svg>
