<?xml version="1.0" encoding="utf-8"?>
<!-- Generator: Adobe Illustrator 23.0.3, SVG Export Plug-In . SVG Version: 6.00 Build 0)  -->
<svg version="1.1" id="Calque_1" xmlns="http://www.w3.org/2000/svg" xmlns:xlink="http://www.w3.org/1999/xlink" x="0px" y="0px"
	 viewBox="0 0 70 70" style="enable-background:new 0 0 70 70;" xml:space="preserve">
<style type="text/css">
	.st0{fill:#FFFFFF;}
	.st1{fill:#FFDE00;}
	.st2{fill:#5EBFBA;}
</style>
<path class="st0" d="M70,35c0,19.3-15.7,35-35,35c-4.3,0-8.5-0.8-12.3-2.2c-0.8-0.3-1.6-0.7-2.4-1c-0.3-0.2-0.7-0.3-1-0.5h0
	c0,0,0,0-0.1,0C7.8,60.5,0,48.6,0,35C0,15.7,15.7,0,35,0S70,15.7,70,35z"/>
<g id="logo">
	<path d="M40.5,2.4l-0.9,2.8l0,0.1L38,10.2c0,0,0,0,0,0l-6.3,20.2c0,0,0,0,0,0l-4.3,13.5c0,0,0,0,0,0L27,45.2v0l-6.8,21.5
		c-0.3-0.2-0.7-0.3-1-0.5l6.4-20.5c0,0,0,0,0,0v0l1.1-3.5l9.9-31.4l0.2-0.6l1.5-4.9l0.9-2.8H40.5z"/>
	<path class="st1" d="M38.5,5.3l-1.5,4.9l-0.2,0.6l-9.9,31.4l-1.1,3.5c0,0,0,0,0,0l-6.4,20.5h0c0,0,0,0-0.1,0l6.3-23v0l0.4-1.5
		l8.5-30.9l0.1-0.5l1.4-5H38.5z"/>
	<path class="st2" d="M39.6,5.3L39.6,5.3l-1.3,4.9L38,11l-5,18.5l-0.3,1l-3.1,11.3l-0.3,1.1l-6.7,24.9c-0.8-0.3-1.6-0.7-2.4-1
		L27,45.2v0l0.4-1.3c0,0,0,0,0,0l4.3-13.5c0,0,0,0,0,0L38,10.2L39.6,5.3z"/>
	<path d="M40.1,10.4c0,0-6.1-0.9-9.2,1c0,0,3.1-0.8,5.8-0.5l-6.1,19.5c0,0,2.9,0.4,7.2,0c0,0,7.3-1.5,4.4-7.2c0,0-1-1.9-3.6-2.5
		c0,0,5.4-0.2,5.7-4.9C44.4,15.7,45.4,11,40.1,10.4z M43.3,15.8c-0.4,4.8-7.4,4.9-7.4,4.9c5,0.1,5.9,3.8,5.9,3.8
		c0.5,4.5-4.2,4.8-4.2,4.8c-2.6,0.4-5.4,0.1-5.4,0.1L37.8,11C43.6,11.1,43.3,15.8,43.3,15.8z"/>
	<path d="M62.9,27.2c-0.2,0.3-0.4,0.7-0.6,1c-0.2,0.3-0.4,0.6-0.6,0.8c-0.2,0.2-0.4,0.4-0.6,0.5c-0.2,0.1-0.4,0.2-0.5,0.2
		c-0.3,0-0.5-0.3-0.5-0.7c-0.1-0.4-0.1-0.9-0.1-1.5c0-0.6,0.1-1.2,0.3-1.9c0.1-0.7,0.3-1.3,0.4-2c0.2-0.6,0.3-1.2,0.5-1.7
		c0.1-0.5,0.2-0.8,0.3-1c-0.3,0-2.5,0.1-2.5,0.1v0c-0.9,0-1.7,0.3-2.4,0.7c-0.7,0.5-1.3,1.1-1.7,1.8c-0.4,0.7-0.8,1.5-1,2.3
		c-0.1,0.5-0.2,0.9-0.2,1.4c-0.2,0.3-0.3,0.6-0.5,0.9c-0.2,0.3-0.4,0.6-0.6,0.8c-0.2,0.2-0.4,0.4-0.6,0.6c-0.2,0.1-0.4,0.2-0.5,0.2
		c-0.3,0-0.4-0.3-0.5-0.6C51,28.7,51,28.2,51,27.7c0-0.6,0.1-1.2,0.3-1.8c0.1-0.7,0.3-1.3,0.4-1.9s0.3-1.1,0.4-1.6s0.2-0.8,0.3-1
		c0.2-0.6,0.4-1.1,0.6-1.8c0.2-0.6,0.5-1.2,0.8-1.8s0.6-1.2,1-1.8c0.4-0.6,0.7-1.1,1.1-1.6h-1.5c-0.7,1-1.4,2-1.9,3.2
		c-0.5,1.2-1,2.3-1.4,3.5c-0.1,0.3-0.2,0.7-0.4,1.3c-0.2,0.6-0.3,1.2-0.5,1.9c-0.2,0.7-0.3,1.4-0.4,2.1c-0.1,0.3-0.1,0.6-0.1,0.8
		c-0.2,0.4-0.5,0.8-0.8,1.1c-0.4,0.4-0.7,0.7-1.1,0.9c-0.4,0.2-0.7,0.4-1.1,0.5c-0.4,0.1-0.7,0-1-0.1c-0.2-0.1-0.4-0.3-0.6-0.5
		c-0.2-0.2-0.3-0.6-0.3-0.9c0-0.4,0-0.9,0.1-1.4c0.1-0.5,0.3-1.2,0.5-1.9c1.4-0.4,2.4-0.8,3-1.2c0.6-0.4,1-0.8,1.1-1.2
		c0.1-0.4,0-0.7-0.3-0.9s-0.7-0.3-1.2-0.3c-0.3,0-0.6,0.1-1,0.2s-0.7,0.4-1,0.6c-0.3,0.3-0.7,0.7-1,1.1c-0.3,0.5-0.6,1-0.8,1.6
		c-0.1,0.4-0.3,0.9-0.4,1.5c-0.1,0.6-0.1,1.2-0.1,1.7c0,0.6,0.2,1.1,0.5,1.5c0.3,0.4,0.7,0.7,1.3,0.8c0.7,0.1,1.4,0,2.2-0.5
		c0.7-0.4,1.4-1,1.9-1.8c0-0.1,0.1-0.2,0.2-0.3c0,0.2,0,0.3,0,0.5c0,0.6,0.1,1.1,0.3,1.5c0.2,0.4,0.5,0.6,0.9,0.6
		c0.3,0,0.6-0.1,1-0.3s0.6-0.4,0.9-0.7c0.3-0.3,0.6-0.7,0.8-1.1c0.1-0.2,0.2-0.3,0.3-0.5c0,0.1,0,0.2,0,0.3c0,0.7,0.2,1.2,0.4,1.7
		c0.2,0.4,0.6,0.6,1,0.6c0.4-0.1,1-0.4,1.6-1.1c0.6-0.7,1.4-1.7,2.2-3.2c-0.1,0.6-0.2,1.1-0.2,1.6c0,0.5,0,1,0,1.4
		c0.1,0.4,0.2,0.7,0.3,0.9c0.2,0.2,0.4,0.4,0.7,0.4c0.3,0,0.6-0.1,0.9-0.2c0.3-0.2,0.6-0.4,0.9-0.7c0.3-0.3,0.6-0.7,0.8-1.1
		c0.2-0.4,0.5-0.8,0.7-1.2L62.9,27.2L62.9,27.2z M46.4,23.1c0.3-0.4,0.6-0.6,1-0.8c0.3-0.2,0.6-0.3,0.8-0.3c0.3,0,0.4,0.1,0.5,0.2
		c0.1,0.1,0.1,0.2,0.1,0.4c0,0.2-0.2,0.4-0.4,0.6c-0.2,0.2-0.6,0.4-1.1,0.7c-0.5,0.2-1.1,0.5-1.8,0.7C45.8,24,46.1,23.5,46.4,23.1z
		 M59.6,23.5c-0.2,0.6-0.3,1.2-0.4,1.7c-0.7,1.4-1.4,2.5-1.9,3.1s-1,1-1.3,1.2s-0.6,0-0.8-0.3c-0.2-0.3-0.2-0.8-0.2-1.4
		c0-0.6,0.1-1.2,0.3-1.9c0.2-0.7,0.5-1.4,0.8-2c0.4-0.6,0.8-1.1,1.3-1.6c0.5-0.4,1.1-0.7,1.8-0.7c0.5,0,0.9,0.2,0.9,0.2
		C60,22.3,59.8,22.9,59.6,23.5z"/>
	<g>
		<path d="M43.6,47.7c0.1-0.1,0.2-0.1,0.2,0c0,0.1,0,0.2-0.1,0.3c-0.1,0.1-0.1,0.3-0.2,0.4c-0.1,0.2-0.2,0.3-0.2,0.4
			c-0.5,0.7-1.1,1.3-1.9,1.8c-0.7,0.4-1.5,0.6-2.2,0.5c-0.6-0.1-1.1-0.4-1.3-0.8s-0.4-0.9-0.5-1.5c0-0.6,0-1.1,0.1-1.7
			c0.1-0.6,0.2-1.1,0.4-1.5c0.2-0.6,0.5-1.2,0.8-1.6c0.3-0.5,0.6-0.8,1-1.1c0.3-0.3,0.7-0.5,1-0.6c0.3-0.1,0.7-0.2,1-0.2
			c0.5,0,0.9,0.1,1.2,0.3s0.4,0.5,0.3,0.9c-0.1,0.4-0.5,0.8-1.1,1.2c-0.6,0.4-1.6,0.8-3,1.2c-0.3,0.7-0.4,1.3-0.5,1.9
			c-0.1,0.5-0.1,1-0.1,1.4c0,0.4,0.1,0.7,0.3,0.9c0.2,0.2,0.3,0.4,0.6,0.5c0.3,0.1,0.6,0.2,1,0.1c0.4-0.1,0.7-0.2,1.1-0.5
			c0.4-0.2,0.7-0.5,1.1-0.9C43.1,48.6,43.4,48.2,43.6,47.7z M39.3,45.3c0.8-0.2,1.4-0.5,1.8-0.7s0.8-0.5,1.1-0.7
			c0.2-0.2,0.4-0.4,0.4-0.6c0-0.2,0-0.3-0.1-0.4c-0.1-0.1-0.3-0.2-0.5-0.2c-0.3,0-0.5,0.1-0.9,0.3c-0.3,0.2-0.6,0.4-1,0.8
			C39.9,44.1,39.6,44.6,39.3,45.3z"/>
	</g>
	<path d="M37.4,47.8c-0.1,0.2-0.2,0.4-0.4,0.7c-0.2,0.3-0.3,0.5-0.5,0.8c-0.2,0.3-0.4,0.5-0.6,0.7c-0.2,0.2-0.4,0.3-0.6,0.3
		c-0.2,0-0.4-0.1-0.4-0.3s-0.1-0.6,0-1c0-0.4,0.1-0.9,0.2-1.4c0.1-0.5,0.2-1,0.4-1.6c0.1-0.5,0.2-1.1,0.3-1.6c0.1-0.5,0.1-1,0.1-1.4
		c0-0.4-0.1-0.7-0.3-1c-0.2-0.2-0.5-0.3-0.9-0.3c-0.4,0-0.8,0.2-1.1,0.4c-0.3,0.2-0.6,0.5-0.9,0.8c-0.3,0.3-0.5,0.6-0.7,1
		c-0.2,0.3-0.4,0.6-0.6,0.9c0.1-0.4,0.1-0.8,0.1-1.2c0-0.4,0-0.7-0.1-1c-0.1-0.3-0.2-0.5-0.3-0.7c-0.2-0.2-0.4-0.2-0.7-0.2
		c-0.4,0-0.8,0.1-1.2,0.4c-0.4,0.3-0.7,0.6-1,1c-0.3,0.4-0.6,0.8-0.8,1.2c-0.2,0.3-0.3,0.5-0.4,0.8l0.1-0.3c0.1-0.4,0.1-0.8,0.1-1.2
		c0-0.4,0-0.7-0.1-1c-0.1-0.3-0.2-0.5-0.3-0.7s-0.4-0.2-0.7-0.2c-0.4,0-0.8,0.1-1.2,0.4c-0.4,0.3-0.7,0.6-1,1
		c-0.3,0.4-0.6,0.8-0.8,1.2c-0.2,0.4-0.4,0.7-0.6,1l-0.2,1c0.2-0.3,0.4-0.7,0.6-1.1c0.3-0.4,0.5-0.8,0.8-1.2
		c0.3-0.4,0.6-0.7,0.9-0.9c0.3-0.2,0.6-0.3,0.8-0.3c0.3,0.1,0.5,0.4,0.6,0.8c0.2,0.5,0,2.3,0,2.3l-1.5,4.9h1.1l1.3-4.7
		c0.1-0.3,0.3-0.5,0.5-0.8c0.3-0.4,0.5-0.8,0.8-1.2c0.3-0.4,0.6-0.7,0.9-0.9c0.3-0.2,0.6-0.3,0.8-0.3c0.3,0.1,0.5,0.3,0.5,0.8
		c0,0.5,0,1.1-0.2,1.8c0,0.1,0,0.2-0.1,0.3l0,0l-1.2,4.9h1.2l1.3-5.1c0.1-0.2,0.3-0.5,0.5-0.8c0.2-0.3,0.4-0.6,0.7-0.9
		c0.3-0.3,0.5-0.6,0.8-0.8c0.3-0.2,0.6-0.3,0.8-0.3c0.3,0,0.5,0.3,0.5,0.7c0,0.4,0,0.9-0.1,1.5c-0.1,0.6-0.3,1.2-0.4,1.9
		c-0.2,0.7-0.3,1.3-0.4,1.9c-0.1,0.6-0.1,1.1,0,1.5c0.1,0.4,0.4,0.6,0.8,0.7c0.4,0,0.7-0.1,1.1-0.3c0.3-0.2,0.7-0.5,1-0.9
		c0.3-0.3,0.6-0.7,0.8-1.1c0.2-0.4,0.4-0.7,0.5-1L37.4,47.8L37.4,47.8z"/>
	<path d="M14.9,48.6c-0.4,0.6-0.8,1.1-1.3,1.4c-0.4,0.4-0.9,0.6-1.3,0.8c-0.4,0.2-0.8,0.3-1.2,0.4c-0.4,0.1-0.7,0.1-1,0
		c-0.9-0.1-1.5-0.4-2-1.1c-0.5-0.6-0.8-1.5-1-2.5c-0.2-1-0.2-2.1-0.1-3.4c0.1-1.2,0.4-2.5,0.8-3.8c0.4-1.3,0.9-2.5,1.5-3.7
		c0.6-1.2,1.3-2.3,2-3.2c0.8-0.9,1.6-1.6,2.5-2.1c0.9-0.5,1.9-0.7,2.9-0.6c0.7,0.1,1.2,0.3,1.5,0.7c0.3,0.4,0.4,0.8,0.4,1.2
		c0,0.4-0.3,0.8-0.6,1.1c-0.4,0.3-0.9,0.5-1.6,0.5c0.2-0.2,0.4-0.3,0.5-0.6s0.2-0.5,0.3-0.7c0-0.2,0-0.4-0.1-0.6
		c-0.1-0.2-0.3-0.2-0.7-0.2c-0.8,0-1.7,0.3-2.4,0.9c-0.8,0.6-1.5,1.5-2.1,2.5c-0.6,1-1.2,2.2-1.7,3.4c-0.5,1.3-0.8,2.5-1,3.7
		c-0.2,1.2-0.3,2.4-0.2,3.4c0.1,1.1,0.3,1.9,0.8,2.5c0.4,0.6,1.1,0.9,2,0.9C12.5,49.8,13.6,49.4,14.9,48.6z"/>
	<path d="M18.6,40.5c0,0,1.3-0.4,2-1.4c0,0,0.8,1.5,1.4,1.6c0,0-1.3-0.3-1.5-0.9C20.4,39.8,19.7,40.4,18.6,40.5z"/>
	<path d="M22.2,43.2c-0.2-0.5-0.4-0.8-0.7-1.1c-0.3-0.2-0.6-0.4-1-0.4s-0.7,0-1,0.2c-0.3,0.1-0.6,0.4-0.8,0.7
		c-0.2,0.3-0.3,0.7-0.3,1.2c0,0.4,0,0.8,0.1,1.3c0.1,0.4,0.3,0.8,0.4,1.2c0.2,0.4,0.4,0.7,0.7,1.1c0.3,0.3,0.6,0.6,0.9,0.9
		c-0.3,0.5-0.7,1-1.2,1.3s-1,0.5-1.5,0.5c-0.5,0-0.9-0.1-1.1-0.4c-0.2-0.3-0.4-0.6-0.5-1c-0.1-0.4-0.1-0.9,0-1.4
		c0.1-0.5,0.2-1,0.4-1.5c0.2-0.5,0.4-0.9,0.7-1.3c0.3-0.4,0.5-0.7,0.8-0.9c-0.4,0-0.6,0-0.8,0c-0.2,0-0.4,0-0.6,0
		c-0.2,0.2-0.5,0.5-0.7,1s-0.5,0.9-0.6,1.5s-0.3,1.1-0.3,1.7c0,0.6,0,1.1,0.2,1.6s0.4,0.9,0.8,1.2c0.4,0.3,0.9,0.5,1.6,0.5
		c0.7,0,1.4-0.2,2-0.7c0.6-0.5,1.1-1,1.6-1.7l0.2-0.3c0.3-0.5,0.6-1.1,0.7-1.7c0.2-0.6,0.3-1.2,0.3-1.7
		C22.4,44.3,22.3,43.7,22.2,43.2z M21.6,45c-0.1,0.5-0.2,1-0.3,1.6c-0.1,0.5-0.4,1-0.7,1.5c-0.3-0.2-0.6-0.5-0.8-0.8
		c-0.3-0.3-0.5-0.7-0.7-1c-0.2-0.4-0.3-0.8-0.4-1.2c-0.1-0.4-0.1-0.8-0.1-1.2c0-0.4,0.1-0.7,0.3-1c0.2-0.3,0.4-0.5,0.6-0.6
		c0.2-0.1,0.5-0.2,0.8-0.1c0.3,0,0.5,0.2,0.7,0.4c0.2,0.2,0.4,0.5,0.5,0.9C21.7,43.9,21.7,44.4,21.6,45z"/>
</g>
</svg>
