<?xml version="1.0" encoding="utf-8"?>
<!-- Generator: Adobe Illustrator 23.0.3, SVG Export Plug-In . SVG Version: 6.00 Build 0)  -->
<svg version="1.1" id="Calque_1" xmlns="http://www.w3.org/2000/svg" xmlns:xlink="http://www.w3.org/1999/xlink" x="0px" y="0px"
	 viewBox="0 0 280.5 437.46" style="enable-background:new 0 0 280.5 437.46;" xml:space="preserve">
<style type="text/css">
	.st0{fill:#FFDE00;}
	.st1{fill:#5EBFBA;}
</style>
<polygon points="30.43,437.46 24.64,437.46 161.45,2.73 167.06,2.73 "/>
<polygon class="st0" points="144.6,16.93 156.98,16.93 58.28,330.64 "/>
<polygon class="st1" points="56.87,408.12 30.43,437.46 162.6,16.93 "/>
<path d="M165.31,42.37c0,0-30.16-4.34-45.84,4.82c0,0,15.52-4.03,28.83-2.67l-30.28,97c0,0,14.66,1.99,35.82,0
	c0,0,36.55-7.23,22.07-35.82c0,0-5.07-9.23-17.91-12.3c0,0,26.66-1.09,28.62-24.61C186.63,68.79,191.36,45.27,165.31,42.37z
	 M180.99,69.39c-2.17,23.88-36.91,24.19-36.91,24.19c24.97,0.3,29.55,19.12,29.55,19.12c2.65,22.31-21.14,24-21.14,24
	c-12.94,2.11-27.05,0.37-27.05,0.37l28.36-91.91C182.66,45.88,180.99,69.39,180.99,69.39z"/>
<path d="M278.94,126.12c-0.89,1.71-1.82,3.34-2.79,4.9c-0.96,1.56-1.93,2.92-2.9,4.07c-0.96,1.15-1.91,2.06-2.84,2.73
	c-0.93,0.67-1.77,0.93-2.51,0.78c-1.41-0.22-2.32-1.32-2.73-3.29c-0.41-1.97-0.5-4.38-0.28-7.24c0.22-2.86,0.67-6,1.34-9.42
	c0.67-3.42,1.41-6.69,2.23-9.81c0.82-3.12,1.58-5.87,2.28-8.25c0.71-2.38,1.21-4.01,1.51-4.9c-1.44-0.24-12.25,0.35-12.25,0.35
	l0,0.01c-4.59,0.16-8.56,1.37-11.88,3.65c-3.45,2.38-6.3,5.32-8.53,8.81c-2.23,3.49-3.84,7.26-4.85,11.31
	c-0.58,2.36-0.95,4.59-1.14,6.74c-0.81,1.51-1.67,2.97-2.59,4.35c-1.04,1.56-2.06,2.94-3.07,4.12c-1,1.19-1.99,2.12-2.95,2.78
	c-0.97,0.67-1.82,0.93-2.56,0.78c-1.34-0.22-2.21-1.28-2.62-3.17c-0.41-1.9-0.5-4.23-0.28-7.02c0.22-2.79,0.69-5.81,1.39-9.08
	c0.7-3.27,1.45-6.41,2.23-9.42c0.78-3.01,1.5-5.67,2.17-7.97c0.67-2.3,1.15-3.9,1.45-4.79c0.81-2.75,1.82-5.67,3.01-8.75
	c1.19-3.08,2.51-6.13,3.96-9.14c1.45-3.01,3.04-5.94,4.79-8.81c1.75-2.86,3.58-5.44,5.52-7.74h-7.24c-3.72,4.83-6.91,10.2-9.59,16.1
	c-2.67,5.91-4.94,11.65-6.8,17.22c-0.44,1.34-1.1,3.42-1.95,6.24c-0.85,2.82-1.71,5.93-2.56,9.31c-0.86,3.38-1.6,6.87-2.23,10.48
	c-0.25,1.44-0.44,2.82-0.59,4.17c-1.09,1.98-2.37,3.79-3.86,5.42c-1.75,1.89-3.55,3.44-5.41,4.63c-1.86,1.19-3.72,1.97-5.57,2.34
	c-1.86,0.37-3.49,0.22-4.91-0.44c-1.11-0.52-2.06-1.37-2.84-2.56c-0.78-1.19-1.28-2.75-1.51-4.68c-0.22-1.93-0.11-4.25,0.34-6.97
	c0.44-2.71,1.3-5.85,2.56-9.42c6.84-1.86,11.8-3.88,14.88-6.08c3.08-2.19,4.88-4.21,5.41-6.08c0.52-1.85-0.02-3.36-1.62-4.51
	c-1.6-1.15-3.66-1.65-6.19-1.5c-1.56,0.07-3.21,0.46-4.96,1.17c-1.75,0.71-3.47,1.78-5.18,3.23c-1.71,1.45-3.34,3.31-4.9,5.57
	c-1.56,2.27-2.94,5-4.13,8.19c-0.74,2-1.39,4.48-1.95,7.41c-0.56,2.94-0.72,5.82-0.5,8.64c0.22,2.82,1,5.31,2.34,7.47
	c1.34,2.16,3.57,3.49,6.69,4.01c3.57,0.59,7.17-0.18,10.81-2.34c3.64-2.15,6.76-5.09,9.36-8.8c0.22-0.33,0.51-0.79,0.84-1.31
	c-0.04,0.79-0.06,1.56-0.06,2.32c0,2.97,0.43,5.43,1.28,7.36c0.85,1.93,2.32,2.93,4.4,3.01c1.56,0.07,3.14-0.35,4.74-1.28
	c1.6-0.93,3.14-2.15,4.63-3.68c1.49-1.52,2.88-3.27,4.18-5.24c0.53-0.8,1.02-1.61,1.5-2.43c0,0.46-0.02,0.92,0,1.37
	c0.15,3.42,0.82,6.21,2.01,8.36c1.19,2.16,2.9,3.1,5.13,2.84c2.23-0.26,4.92-2.02,8.08-5.3c3.16-3.27,6.75-8.66,10.76-16.16
	c-0.52,2.83-0.89,5.54-1.11,8.14c-0.22,2.6-0.19,4.87,0.11,6.8c0.3,1.93,0.87,3.49,1.73,4.68c0.85,1.19,2.1,1.82,3.73,1.89
	c1.56,0.07,3.12-0.33,4.68-1.22c1.56-0.89,3.06-2.1,4.51-3.62c1.45-1.52,2.79-3.27,4.01-5.24c1.22-1.97,2.36-3.99,3.4-6.07H278.94z
	 M196.69,105.67c1.63-1.82,3.23-3.15,4.79-4.01c1.56-0.85,2.97-1.28,4.23-1.28s2.15,0.3,2.67,0.89c0.45,0.52,0.57,1.23,0.39,2.12
	c-0.19,0.89-0.89,1.88-2.12,2.95c-1.23,1.08-2.99,2.19-5.29,3.34c-2.3,1.15-5.35,2.28-9.14,3.4
	C193.57,109.96,195.05,107.49,196.69,105.67z M262.44,107.56c-0.82,3.08-1.52,5.93-2.12,8.53c-3.64,7.06-6.78,12.24-9.42,15.55
	c-2.64,3.31-4.81,5.22-6.52,5.74c-1.71,0.52-2.97-0.06-3.79-1.73c-0.82-1.67-1.21-3.94-1.17-6.8c0.04-2.86,0.52-6.04,1.45-9.53
	c0.93-3.49,2.28-6.78,4.07-9.86c1.78-3.08,3.96-5.7,6.52-7.86c2.56-2.15,5.52-3.34,8.86-3.56c2.25,0.04,4.57,1,4.57,1
	C264.08,101.64,263.26,104.48,262.44,107.56z"/>
<g>
	<path d="M182.78,228.12c0.74-0.37,1.13-0.35,1.17,0.06c0.04,0.41-0.11,0.95-0.44,1.61c-0.34,0.67-0.74,1.39-1.23,2.17
		c-0.48,0.78-0.87,1.39-1.17,1.84c-2.6,3.71-5.72,6.65-9.36,8.8c-3.64,2.16-7.24,2.93-10.81,2.34c-3.12-0.52-5.35-1.86-6.69-4.01
		c-1.34-2.15-2.12-4.64-2.34-7.47c-0.22-2.82-0.06-5.7,0.5-8.64c0.56-2.93,1.21-5.41,1.95-7.41c1.19-3.19,2.56-5.92,4.13-8.19
		c1.56-2.27,3.19-4.12,4.9-5.57c1.71-1.45,3.44-2.52,5.18-3.23c1.74-0.7,3.4-1.09,4.96-1.17c2.52-0.15,4.59,0.35,6.19,1.5
		c1.6,1.15,2.13,2.66,1.62,4.52c-0.52,1.86-2.32,3.88-5.41,6.08c-3.08,2.19-8.04,4.22-14.88,6.07c-1.26,3.57-2.12,6.71-2.56,9.42
		c-0.45,2.71-0.56,5.03-0.33,6.97c0.22,1.93,0.72,3.49,1.5,4.68c0.78,1.19,1.73,2.05,2.84,2.56c1.41,0.67,3.05,0.82,4.9,0.45
		c1.86-0.37,3.71-1.15,5.57-2.34c1.86-1.19,3.66-2.73,5.41-4.63C180.12,232.64,181.59,230.5,182.78,228.12z M161.38,215.97
		c3.79-1.11,6.84-2.25,9.14-3.4c2.3-1.15,4.07-2.26,5.29-3.34c1.23-1.08,1.93-2.06,2.12-2.95c0.19-0.89,0.06-1.6-0.39-2.12
		c-0.52-0.59-1.41-0.89-2.67-0.89c-1.26,0-2.67,0.43-4.24,1.28c-1.56,0.85-3.16,2.19-4.79,4.01
		C164.2,210.38,162.71,212.85,161.38,215.97z"/>
</g>
<path d="M151.78,228.41c-0.52,0.97-1.19,2.14-2,3.51c-0.82,1.38-1.71,2.73-2.68,4.07c-0.96,1.34-2,2.47-3.12,3.4
	c-1.12,0.93-2.19,1.43-3.23,1.5c-1.19,0.07-1.93-0.48-2.23-1.67c-0.3-1.19-0.33-2.8-0.11-4.85c0.22-2.04,0.63-4.35,1.23-6.91
	c0.59-2.56,1.21-5.2,1.84-7.91c0.63-2.71,1.15-5.37,1.56-7.97c0.41-2.6,0.54-4.89,0.39-6.85c-0.15-1.97-0.67-3.55-1.56-4.74
	c-0.89-1.19-2.34-1.74-4.35-1.67c-2.01,0.15-3.84,0.76-5.52,1.84c-1.67,1.08-3.18,2.4-4.51,3.96c-1.34,1.56-2.55,3.19-3.62,4.9
	c-1.08,1.71-2.03,3.23-2.84,4.57c0.37-2.08,0.61-4.07,0.73-5.96c0.11-1.89,0.02-3.53-0.28-4.91c-0.3-1.37-0.87-2.47-1.73-3.29
	c-0.86-0.82-2.1-1.19-3.73-1.11c-2.08,0-4.05,0.69-5.91,2.06c-1.86,1.38-3.55,3.01-5.07,4.91c-1.52,1.89-2.88,3.86-4.07,5.91
	c-0.84,1.44-1.56,2.69-2.17,3.78l0.31-1.58c0.35-2.01,0.59-3.93,0.7-5.76c0.11-1.89,0.02-3.53-0.28-4.91
	c-0.3-1.37-0.87-2.47-1.73-3.29c-0.86-0.82-2.1-1.19-3.73-1.11c-2.08,0-4.05,0.69-5.91,2.06c-1.86,1.38-3.55,3.01-5.07,4.91
	c-1.52,1.89-2.88,3.86-4.07,5.91c-1.19,2.05-2.16,3.73-2.9,5.07l-1.11,5.13c0.82-1.71,1.85-3.58,3.12-5.63
	c1.26-2.04,2.6-3.96,4.01-5.74c1.41-1.78,2.86-3.25,4.35-4.4c1.49-1.15,2.86-1.69,4.13-1.61c1.71,0.3,2.33,1.77,3.08,4.07
	c0.83,2.54-0.24,11.22-0.24,11.22l-7.6,24.23h5.41l6.46-23.64c0.68-1.29,1.46-2.66,2.36-4.12c1.26-2.04,2.6-3.96,4.01-5.74
	c1.41-1.78,2.86-3.25,4.35-4.4c1.49-1.15,2.86-1.69,4.13-1.61c1.71,0.3,2.62,1.65,2.73,4.07c0.11,2.41-0.24,5.44-1.06,9.08
	c-0.12,0.57-0.23,1.16-0.35,1.74h0l-6.08,24.62h5.79l6.55-25.47c0.52-0.96,1.28-2.25,2.28-3.85c1-1.6,2.13-3.16,3.4-4.68
	c1.26-1.52,2.62-2.82,4.07-3.9c1.45-1.08,2.84-1.61,4.18-1.61c1.63,0.22,2.52,1.34,2.67,3.34c0.15,2.01-0.06,4.48-0.61,7.41
	c-0.56,2.94-1.26,6.11-2.12,9.53c-0.85,3.42-1.47,6.59-1.84,9.53c-0.37,2.94-0.3,5.41,0.22,7.41c0.52,2.01,1.85,3.12,4.01,3.34
	c1.85,0.15,3.66-0.33,5.41-1.45c1.74-1.11,3.36-2.53,4.85-4.24c1.48-1.71,2.8-3.51,3.96-5.41c1.15-1.89,2.06-3.59,2.73-5.07H151.78z
	"/>
<path d="M39.73,232.42c-1.99,2.94-4.08,5.31-6.26,7.11c-2.19,1.8-4.34,3.18-6.48,4.13c-2.13,0.95-4.17,1.57-6.12,1.85
	c-1.94,0.28-3.67,0.33-5.19,0.14c-4.27-0.38-7.64-2.16-10.1-5.33c-2.47-3.17-4.1-7.25-4.91-12.23c-0.81-4.98-0.9-10.55-0.29-16.71
	c0.62-6.17,1.87-12.43,3.77-18.78c1.89-6.36,4.31-12.52,7.25-18.49c2.94-5.98,6.33-11.21,10.17-15.72c3.84-4.5,8.04-8.04,12.59-10.6
	c4.56-2.56,9.34-3.6,14.37-3.13c3.51,0.29,6.02,1.4,7.54,3.34c1.52,1.94,2.18,3.98,1.99,6.12c-0.19,2.13-1.26,4.03-3.2,5.69
	c-1.94,1.66-4.67,2.44-8.18,2.35c0.94-0.76,1.8-1.7,2.56-2.84c0.76-1.14,1.23-2.25,1.42-3.34c0.19-1.09,0-2.04-0.57-2.84
	c-0.57-0.81-1.71-1.21-3.41-1.21c-4.18-0.09-8.23,1.45-12.16,4.62c-3.94,3.18-7.49,7.31-10.67,12.38
	c-3.18,5.07-5.95,10.76-8.32,17.07c-2.37,6.31-4.08,12.5-5.12,18.56c-1.04,6.07-1.37,11.74-1,17c0.38,5.26,1.68,9.39,3.91,12.37
	c2.23,2.99,5.5,4.53,9.82,4.63C27.47,238.63,32.99,236.59,39.73,232.42z"/>
<path d="M57.87,192.49c0,0,6.27-2.17,9.89-6.99c0,0,3.98,7.72,6.88,8.2c0,0-6.51-1.33-7.48-4.7C67.16,189,63.42,191.53,57.87,192.49
	z"/>
<path d="M75.8,205.8c-0.85-2.3-2.02-4.05-3.51-5.24c-1.49-1.19-3.12-1.88-4.9-2.06c-1.78-0.18-3.47,0.09-5.07,0.84
	c-1.6,0.74-2.95,1.93-4.07,3.56c-1.11,1.64-1.67,3.68-1.67,6.13c-0.07,2.08,0.15,4.16,0.67,6.24c0.52,2.08,1.26,4.08,2.23,6.02
	c0.97,1.93,2.12,3.73,3.46,5.41c1.34,1.67,2.78,3.14,4.35,4.41c-1.71,2.6-3.73,4.79-6.07,6.58c-2.34,1.79-4.78,2.64-7.3,2.56
	c-2.45,0-4.29-0.67-5.52-2c-1.23-1.34-2.01-3.05-2.34-5.13c-0.33-2.08-0.28-4.38,0.17-6.91c0.45-2.52,1.13-4.97,2.06-7.36
	c0.93-2.38,2.02-4.53,3.29-6.47c1.26-1.93,2.53-3.38,3.79-4.35c-1.86-0.07-3.21-0.09-4.07-0.06c-0.86,0.04-1.91,0.06-3.18,0.06
	c-1.19,1.04-2.39,2.66-3.62,4.85c-1.23,2.19-2.25,4.65-3.07,7.36c-0.82,2.71-1.34,5.5-1.56,8.36c-0.22,2.86,0.04,5.48,0.78,7.86
	c0.74,2.38,2.06,4.37,3.96,5.96c1.9,1.6,4.59,2.4,8.08,2.4c3.57,0,6.85-1.15,9.86-3.46c3.01-2.3,5.59-5.13,7.75-8.47l0.89-1.34
	c1.63-2.67,2.86-5.5,3.68-8.47c0.82-2.97,1.37-5.87,1.67-8.69C76.89,210.97,76.65,208.11,75.8,205.8z M73.18,214.5
	c-0.37,2.6-0.91,5.2-1.62,7.8c-0.71,2.6-1.8,5.13-3.29,7.58c-1.41-1.11-2.75-2.47-4.01-4.07c-1.26-1.6-2.36-3.33-3.29-5.18
	c-0.93-1.86-1.64-3.79-2.12-5.79c-0.49-2.01-0.65-3.97-0.5-5.91c0.15-1.85,0.67-3.43,1.56-4.74c0.89-1.3,1.95-2.25,3.18-2.84
	c1.22-0.6,2.51-0.8,3.84-0.61c1.34,0.19,2.52,0.8,3.56,1.84c1.04,1.04,1.84,2.55,2.4,4.51C73.46,209.06,73.55,211.53,73.18,214.5z"
	/>
</svg>
