<svg xmlns="http://www.w3.org/2000/svg" width="101.4" height="228.15" viewBox="0 0 101.4 228.15">
  <g id="logo" transform="translate(-1387.455 -1861.338)">
    <path id="Path_25" data-name="Path 25" d="M1488.855,1861.338l-47.32,228.15-54.08-202.8Z" fill="#fff"/>
    <g id="logo-bela-come" transform="translate(1412.955 1884.958) rotate(-2)">
      <path id="Path_11" data-name="Path 11" d="M1.233,92.572H0L29.133,0h1.195Z" transform="translate(5.251)"/>
      <path id="Path_12" data-name="Path 12" d="M18.381,0h2.636L0,66.8Z" transform="translate(12.414 3.024)" fill="#ffde00"/>
      <path id="Path_13" data-name="Path 13" d="M5.632,83.3,0,89.548,28.144,0Z" transform="translate(6.483 3.024)" fill="#5ebfba"/>
      <path id="Path_14" data-name="Path 14" d="M10.07.219S3.648-.705.309,1.245A20.513,20.513,0,0,1,6.448.677L0,21.332a36.9,36.9,0,0,0,7.628,0s7.783-1.54,4.7-7.628a6.062,6.062,0,0,0-3.814-2.619s5.679-.232,6.094-5.24C14.61,5.845,15.617.836,10.07.219Zm3.339,5.754c-.462,5.085-7.86,5.151-7.86,5.151,5.317.064,6.292,4.071,6.292,4.071.564,4.751-4.5,5.111-4.5,5.111a23.5,23.5,0,0,1-5.76.079L7.619.813C13.765.966,13.409,5.972,13.409,5.972Z" transform="translate(25.135 8.222)"/>
      <path id="Path_15" data-name="Path 15" d="M20.5,13.5q-.284.546-.594,1.043a7.2,7.2,0,0,1-.618.867,3.384,3.384,0,0,1-.6.581.7.7,0,0,1-.534.166c-.3-.047-.494-.281-.581-.7a5.6,5.6,0,0,1-.06-1.542,17.5,17.5,0,0,1,.285-2.006q.214-1.092.475-2.089t.485-1.757q.227-.76.322-1.043c-.307-.051-2.609.075-2.609.075v0a4.659,4.659,0,0,0-2.53.777,6.541,6.541,0,0,0-1.816,1.876,8.064,8.064,0,0,0-1.033,2.408,9.5,9.5,0,0,0-.243,1.435c-.172.322-.356.632-.552.926a9.218,9.218,0,0,1-.654.877,3.253,3.253,0,0,1-.628.592.727.727,0,0,1-.545.166c-.285-.047-.471-.273-.558-.675a5.251,5.251,0,0,1-.06-1.495,14.894,14.894,0,0,1,.3-1.934c.149-.7.309-1.365.475-2.006s.319-1.207.462-1.7.245-.83.309-1.02c.172-.586.388-1.207.641-1.863s.534-1.305.843-1.946.647-1.265,1.02-1.876A13.378,13.378,0,0,1,13.074,0H11.532A17.35,17.35,0,0,0,9.49,3.428,38.708,38.708,0,0,0,8.042,7.1c-.094.285-.234.728-.415,1.329s-.364,1.263-.545,1.982-.341,1.463-.475,2.232c-.053.307-.094.6-.126.888a5.964,5.964,0,0,1-.822,1.154,5.98,5.98,0,0,1-1.152.986,3.469,3.469,0,0,1-1.186.5,1.658,1.658,0,0,1-1.046-.094,1.471,1.471,0,0,1-.6-.545,2.3,2.3,0,0,1-.322-1,5.463,5.463,0,0,1,.072-1.484,11.9,11.9,0,0,1,.545-2.006A10.373,10.373,0,0,0,5.135,9.744,2.762,2.762,0,0,0,6.287,8.45a.819.819,0,0,0-.345-.96A1.992,1.992,0,0,0,4.624,7.17a3.2,3.2,0,0,0-1.056.249,4.093,4.093,0,0,0-1.1.688A6.042,6.042,0,0,0,1.421,9.293a8.027,8.027,0,0,0-.879,1.744,10.09,10.09,0,0,0-.415,1.578,6.918,6.918,0,0,0-.106,1.84,3.483,3.483,0,0,0,.5,1.591,1.945,1.945,0,0,0,1.425.854,3.349,3.349,0,0,0,2.3-.5,6.408,6.408,0,0,0,1.993-1.874c.047-.07.109-.168.179-.279-.009.168-.013.332-.013.494a3.911,3.911,0,0,0,.273,1.567,1,1,0,0,0,.937.641,1.826,1.826,0,0,0,1.009-.273,4.63,4.63,0,0,0,.986-.784,7.445,7.445,0,0,0,.89-1.116c.113-.17.217-.343.319-.517,0,.1,0,.2,0,.292a4.035,4.035,0,0,0,.428,1.78,1.035,1.035,0,0,0,1.092.6,3.258,3.258,0,0,0,1.721-1.129,16.024,16.024,0,0,0,2.291-3.441q-.166.9-.236,1.733a6.174,6.174,0,0,0,.023,1.448,2.279,2.279,0,0,0,.368,1,.971.971,0,0,0,.794.4,1.822,1.822,0,0,0,1-.26,4.253,4.253,0,0,0,.96-.771,6.789,6.789,0,0,0,.854-1.116c.26-.419.5-.85.724-1.293H20.5ZM2.989,9.148a4.01,4.01,0,0,1,1.02-.854,1.922,1.922,0,0,1,.9-.273.728.728,0,0,1,.569.19.5.5,0,0,1,.083.451,1.267,1.267,0,0,1-.451.628A5.377,5.377,0,0,1,3.983,10a12.209,12.209,0,0,1-1.946.724A5.842,5.842,0,0,1,2.989,9.148Zm14,.4c-.175.656-.324,1.263-.451,1.816a21.107,21.107,0,0,1-2.006,3.311A3.511,3.511,0,0,1,13.144,15.9a.616.616,0,0,1-.807-.368,3.223,3.223,0,0,1-.249-1.448,8.4,8.4,0,0,1,.309-2.029,8.527,8.527,0,0,1,.867-2.1,6.279,6.279,0,0,1,1.388-1.674,3.208,3.208,0,0,1,1.887-.76,3.1,3.1,0,0,1,.973.213Q17.253,8.57,16.99,9.553Z" transform="translate(38.898 12.77)"/>
      <g id="Group_2" data-name="Group 2" transform="translate(32.331 41.842)">
        <path id="Path_16" data-name="Path 16" d="M6.594,6.153q.236-.118.249.013a.676.676,0,0,1-.094.343c-.072.143-.158.3-.262.462s-.185.3-.249.392A6.408,6.408,0,0,1,4.245,9.237a3.349,3.349,0,0,1-2.3.5A1.952,1.952,0,0,1,.519,8.881,3.467,3.467,0,0,1,.02,7.29,6.918,6.918,0,0,1,.127,5.45,10.091,10.091,0,0,1,.542,3.873a7.933,7.933,0,0,1,.879-1.744A5.981,5.981,0,0,1,2.465.942a4.126,4.126,0,0,1,1.1-.688A3.3,3.3,0,0,1,4.624.006,2,2,0,0,1,5.942.325a.824.824,0,0,1,.345.962A2.757,2.757,0,0,1,5.135,2.582,10.379,10.379,0,0,1,1.967,3.875a11.9,11.9,0,0,0-.545,2.006,5.362,5.362,0,0,0-.07,1.484,2.274,2.274,0,0,0,.319,1,1.456,1.456,0,0,0,.6.545A1.636,1.636,0,0,0,3.319,9,3.452,3.452,0,0,0,4.5,8.5a5.907,5.907,0,0,0,1.152-.986A5.945,5.945,0,0,0,6.594,6.153ZM2.037,3.566a12,12,0,0,0,1.946-.724A5.321,5.321,0,0,0,5.11,2.131,1.276,1.276,0,0,0,5.561,1.5a.5.5,0,0,0-.083-.451.728.728,0,0,0-.569-.19,1.936,1.936,0,0,0-.9.273,3.966,3.966,0,0,0-1.02.854A5.672,5.672,0,0,0,2.037,3.566Z"/>
      </g>
      <path id="Path_17" data-name="Path 17" d="M16.348,6.41c-.111.207-.253.456-.426.747s-.364.581-.571.867a3.838,3.838,0,0,1-.664.724A1.227,1.227,0,0,1,14,9.067a.419.419,0,0,1-.475-.356A3.066,3.066,0,0,1,13.5,7.679a12.32,12.32,0,0,1,.262-1.471c.126-.545.258-1.107.392-1.684s.245-1.143.332-1.7a6.379,6.379,0,0,0,.083-1.459A1.894,1.894,0,0,0,14.237.358,1.032,1.032,0,0,0,13.311,0a2.475,2.475,0,0,0-1.175.392,4.393,4.393,0,0,0-.96.843A8.613,8.613,0,0,0,10.4,2.281q-.345.546-.6.973a11.372,11.372,0,0,0,.155-1.269A3.913,3.913,0,0,0,9.9.939a1.332,1.332,0,0,0-.368-.7A1.029,1.029,0,0,0,8.733,0,2.088,2.088,0,0,0,7.474.441a5.82,5.82,0,0,0-1.08,1.046,10.1,10.1,0,0,0-.867,1.258c-.179.307-.332.573-.462.8l.066-.336a11.035,11.035,0,0,0,.149-1.227A3.913,3.913,0,0,0,5.221.941a1.332,1.332,0,0,0-.368-.7A1.029,1.029,0,0,0,4.059,0,2.088,2.088,0,0,0,2.8.443a5.819,5.819,0,0,0-1.08,1.046A10.1,10.1,0,0,0,.854,2.747c-.253.437-.46.794-.618,1.08L0,4.919A13.8,13.8,0,0,1,1.518,2.5a5.443,5.443,0,0,1,.926-.937,1.336,1.336,0,0,1,.879-.343c.364.064.5.377.656.867a9.861,9.861,0,0,1-.051,2.389L2.31,9.634H3.462L4.838,4.6c.145-.275.311-.566.5-.877A12.81,12.81,0,0,1,6.194,2.5a5.445,5.445,0,0,1,.926-.937A1.336,1.336,0,0,1,8,1.22c.364.064.558.351.581.867a7.536,7.536,0,0,1-.226,1.934c-.026.121-.049.247-.075.371h0L6.987,9.634H8.22L9.614,4.21c.111-.2.273-.479.486-.82a8.957,8.957,0,0,1,.724-1,5.037,5.037,0,0,1,.867-.83,1.5,1.5,0,0,1,.89-.343c.347.047.537.285.569.711a6.271,6.271,0,0,1-.13,1.578c-.119.626-.268,1.3-.451,2.029a17.564,17.564,0,0,0-.392,2.029,4.253,4.253,0,0,0,.047,1.578.894.894,0,0,0,.854.711,1.826,1.826,0,0,0,1.152-.309,4.8,4.8,0,0,0,1.033-.9A8.627,8.627,0,0,0,16.1,7.494a10.052,10.052,0,0,0,.581-1.08h-.339Z" transform="translate(15.976 41.647)"/>
      <path id="Path_18" data-name="Path 18" d="M8.464,18.713a7.121,7.121,0,0,1-1.333,1.514,6.088,6.088,0,0,1-1.38.879,4.938,4.938,0,0,1-1.3.394,4.176,4.176,0,0,1-1.105.03,2.921,2.921,0,0,1-2.151-1.137,5.635,5.635,0,0,1-1.046-2.6,13.786,13.786,0,0,1-.062-3.558,21.4,21.4,0,0,1,.8-4A25.045,25.045,0,0,1,2.431,6.294,16.058,16.058,0,0,1,4.6,2.947,9.971,9.971,0,0,1,7.278.69a5.138,5.138,0,0,1,3.06-.667,2.157,2.157,0,0,1,1.606.711,1.806,1.806,0,0,1,.424,1.3,1.789,1.789,0,0,1-.681,1.212,2.5,2.5,0,0,1-1.742.5,2.686,2.686,0,0,0,.545-.6,1.866,1.866,0,0,0,.3-.711.774.774,0,0,0-.121-.6.84.84,0,0,0-.726-.258,3.945,3.945,0,0,0-2.589.984A10.531,10.531,0,0,0,5.082,5.191,20.165,20.165,0,0,0,3.311,8.826a21.681,21.681,0,0,0-1.09,3.952,15.167,15.167,0,0,0-.213,3.62,4.931,4.931,0,0,0,.833,2.634,2.522,2.522,0,0,0,2.091.986A6.954,6.954,0,0,0,8.464,18.713Z" transform="translate(0 30.195)"/>
      <path id="Path_19" data-name="Path 19" d="M0,1.488A5.02,5.02,0,0,0,2.106,0s.848,1.644,1.465,1.746c0,0-1.386-.283-1.593-1A5.581,5.581,0,0,1,0,1.488Z" transform="translate(12.329 38.919)"/>
      <path id="Path_20" data-name="Path 20" d="M7.667,1.566A2.492,2.492,0,0,0,6.92.45,1.963,1.963,0,0,0,5.876.011,2.018,2.018,0,0,0,4.8.19,2.142,2.142,0,0,0,3.93.948a2.276,2.276,0,0,0-.356,1.305,4.789,4.789,0,0,0,.143,1.329,6.235,6.235,0,0,0,.475,1.282,6.574,6.574,0,0,0,.737,1.152,6.14,6.14,0,0,0,.926.939,5.658,5.658,0,0,1-1.293,1.4A2.4,2.4,0,0,1,3.008,8.9a1.525,1.525,0,0,1-1.175-.426,2.046,2.046,0,0,1-.5-1.092A4.431,4.431,0,0,1,1.37,5.912a8.358,8.358,0,0,1,.439-1.567,7.457,7.457,0,0,1,.7-1.378,3.739,3.739,0,0,1,.807-.926c-.4-.015-.684-.019-.867-.013s-.407.013-.677.013A3.937,3.937,0,0,0,1,3.074,7.818,7.818,0,0,0,.348,4.641a8.34,8.34,0,0,0-.332,1.78A4.451,4.451,0,0,0,.182,8.095a2.646,2.646,0,0,0,.843,1.269,2.6,2.6,0,0,0,1.721.511,3.371,3.371,0,0,0,2.1-.737,7.091,7.091,0,0,0,1.65-1.8l.19-.285a7.053,7.053,0,0,0,.784-1.8A11.537,11.537,0,0,0,7.825,3.4,4.105,4.105,0,0,0,7.667,1.566ZM7.109,3.419a13.545,13.545,0,0,1-.345,1.661,6.281,6.281,0,0,1-.7,1.614,5.153,5.153,0,0,1-.854-.867,6.494,6.494,0,0,1-.7-1.1,5.752,5.752,0,0,1-.451-1.233,3.976,3.976,0,0,1-.106-1.258,2.059,2.059,0,0,1,.332-1.009,1.734,1.734,0,0,1,.677-.6,1.377,1.377,0,0,1,.818-.13A1.312,1.312,0,0,1,6.536.88a2.183,2.183,0,0,1,.511.96A3.989,3.989,0,0,1,7.109,3.419Z" transform="translate(8.478 41.676)"/>
    </g>
  </g>
</svg>
